<?xml version="1.0" encoding="UTF-8" standalone="no"?>
<svg
   xmlns:dc="http://purl.org/dc/elements/1.1/"
   xmlns:cc="http://creativecommons.org/ns#"
   xmlns:rdf="http://www.w3.org/1999/02/22-rdf-syntax-ns#"
   xmlns:svg="http://www.w3.org/2000/svg"
   xmlns="http://www.w3.org/2000/svg"
   xmlns:sodipodi="http://sodipodi.sourceforge.net/DTD/sodipodi-0.dtd"
   xmlns:inkscape="http://www.inkscape.org/namespaces/inkscape"
   height="88"
   width="74"
   id="svg2"
   sodipodi:version="0.32"
   inkscape:version="0.46"
   sodipodi:docname="Android_robot.svg"
   inkscape:output_extension="org.inkscape.output.svg.inkscape">
  <metadata
     id="metadata15">
    <rdf:RDF>
      <cc:Work
         rdf:about="">
        <dc:format>image/svg+xml</dc:format>
        <dc:type
           rdf:resource="http://purl.org/dc/dcmitype/StillImage" />
      </cc:Work>
    </rdf:RDF>
  </metadata>
  <defs
     id="defs13">
    <inkscape:perspective
       sodipodi:type="inkscape:persp3d"
       inkscape:vp_x="0 : 44 : 1"
       inkscape:vp_y="0 : 1000 : 0"
       inkscape:vp_z="74 : 44 : 1"
       inkscape:persp3d-origin="37 : 29.333333 : 1"
       id="perspective17" />
  </defs>
  <sodipodi:namedview
     inkscape:window-height="738"
     inkscape:window-width="1280"
     inkscape:pageshadow="2"
     inkscape:pageopacity="0.0"
     guidetolerance="10.0"
     gridtolerance="10.0"
     objecttolerance="10.0"
     borderopacity="1.0"
     bordercolor="#666666"
     pagecolor="#ffffff"
     id="base"
     showgrid="false"
     inkscape:zoom="7.4246212"
     inkscape:cx="56.227622"
     inkscape:cy="67.458071"
     inkscape:window-x="-8"
     inkscape:window-y="-8"
     inkscape:current-layer="svg2" />
  <path
     fill="#a4c639"
     d="M 21.481,0.65239 L 25.543,7.71509 C 18.149,11.34199 13.137,18.44309 13.137,26.59009 L 36.793,26.59009 L 60.449,26.59009 C 60.449,18.44329 55.437,11.34209 48.043,7.71509 L 52.106,0.65249 C 52.106,0.65249 52.29831,0.2774 51.93375,0.0668 C 51.56875,-0.14379 51.32375,0.21549 51.32375,0.21549 L 47.19875,7.34029 C 44.05775,5.94239 40.52665,5.15279 36.79275,5.15279 C 33.05865,5.15279 29.52745,5.94239 26.38675,7.34029 L 22.26175,0.21549 C 22.26175,0.21549 22.03169,-0.1439 21.66438,0.06578 C 21.29638,0.27545 21.48038,0.65249 21.48038,0.65249 L 21.481,0.65239 z M 25.543,14.33239 C 26.7825,14.33239 13.650864,10.090097 27.793,16.58239 C 28.919469,17.099523 26.7825,18.80119 25.543,18.80119 C 24.3035,18.80119 23.293,17.82191 23.293,16.58239 C 23.293,15.34287 24.3035,14.33239 25.543,14.33239 L 25.543,14.33239 z M 48.043,14.33239 C 49.2825,14.33239 50.293,15.34289 50.293,16.58239 C 50.29299,17.82189 49.2825,18.80119 48.043,18.80119 C 46.8035,18.80119 44.676735,17.121243 45.793,16.58239 C 63.706372,7.9350847 46.8035,14.33239 48.043,14.33239 L 48.043,14.33239 z"
     id="path4"
     sodipodi:nodetypes="cccccccsccsccscccssscccssscc" />
  <path
     d="m12.947,29.344,0,35.893c0,1.7807,2.1523,4.1116,3.933,4.1116h5.6295v12.237c0,3.1162,2.2691,5.625,5.0938,5.625,2.8246,0,5.0938-2.5088,5.0938-5.625v-12.237h8.1875v12.237c0,3.1162,2.2691,5.625,5.0938,5.625,2.8246,0,5.125-2.5088,5.125-5.625v-12.237h5.5982c1.7807,0,3.933-2.3309,3.933-4.1116v-35.893h-47.688z"
     fill="#a4c639"
     id="path6" />
  <rect
     rx="5.625"
     ry="5.625"
     height="32.545"
     width="10.197"
     y="28.593"
     x="0"
     fill="#a4c639"
     id="rect8" />
  <rect
     rx="5.625"
     ry="5.625"
     height="32.545"
     width="10.197"
     y="28.593"
     x="63.39"
     fill="#a4c639"
     id="rect10" />
</svg>
